ply
format ascii 1.0
comment CL generated
element vertex 120
property double x
property double y
property double z
property double nx
property double ny
property double nz
property double s
property double t
element face 118
property list uchar int vertex_indices
end_header
-1127.007208 1887.286535 226.820330 -0.000177 0.000300 1.000000 0.601321 0.028803
-1133.353688 1880.753808 226.821144 -0.000179 0.000298 1.000000 0.558047 0.011175
-1137.051607 1878.784176 226.821069 -0.000179 0.000297 1.000000 0.532832 0.005860
-1144.558744 1878.656826 226.819765 -0.000179 0.000297 1.000000 0.481643 0.005516
-1149.248180 1876.786379 226.819475 -0.000180 0.000296 1.000000 0.449667 0.000469
-1151.619670 1876.612647 226.819099 -0.000180 0.000296 1.000000 0.433496 0.000000
-1153.896050 1877.470048 226.818435 -0.000180 0.000296 1.000000 0.417975 0.002314
-1156.037717 1880.480172 226.817158 -0.000180 0.000296 1.000000 0.403371 0.010436
-1157.727212 1889.243623 226.814253 -0.000180 0.000297 1.000000 0.391851 0.034084
-1157.741779 1891.737820 226.813508 -0.000179 0.000298 1.000000 0.391752 0.040815
-1157.120199 1895.864482 226.812391 -0.000179 0.000298 1.000000 0.395990 0.051951
-1152.907152 1914.341780 226.807615 -0.000177 0.000300 1.000000 0.424718 0.101811
-1152.088467 1921.121067 226.805717 -0.000175 0.000303 1.000000 0.430300 0.120105
-1153.896135 1937.675205 226.800365 -0.000175 0.000305 1.000000 0.417974 0.164776
-1155.290298 1943.331144 226.798386 -0.000175 0.000308 1.000000 0.408468 0.180039
-1158.255119 1950.630014 226.795613 -0.000175 0.000310 1.000000 0.388251 0.199735
-1161.716810 1957.272391 226.792943 -0.000176 0.000311 1.000000 0.364647 0.217659
-1164.820375 1966.501280 226.789528 -0.000177 0.000312 1.000000 0.343485 0.242563
-1168.553755 1971.646498 226.787252 -0.000179 0.000314 1.000000 0.318028 0.256447
-1172.019145 1974.386938 226.785766 -0.000181 0.000315 1.000000 0.294399 0.263842
-1175.632234 1976.090949 226.784572 -0.000183 0.000314 1.000000 0.269762 0.268440
-1182.131053 1978.220154 226.782710 -0.000185 0.000313 1.000000 0.225449 0.274186
-1187.522097 1978.874401 226.781506 -0.000186 0.000312 1.000000 0.188689 0.275952
-1188.788427 1980.092611 226.780891 -0.000186 0.000312 1.000000 0.180054 0.279239
-1189.369240 1982.285952 226.780099 -0.000185 0.000312 1.000000 0.176094 0.285158
-1190.032696 1991.678396 226.777039 -0.000184 0.000313 1.000000 0.171570 0.310503
-1187.406968 2004.849200 226.773387 -0.000181 0.000315 1.000000 0.189474 0.346044
-1185.449100 2023.517908 226.767835 -0.000181 0.000318 1.000000 0.202824 0.396421
-1186.170028 2029.247814 226.765874 -0.000182 0.000321 1.000000 0.197908 0.411883
-1189.480774 2038.973818 226.762145 -0.000184 0.000321 1.000000 0.175333 0.438129
-1190.220456 2043.676484 226.760497 -0.000185 0.000321 1.000000 0.170290 0.450819
-1189.371536 2046.525578 226.759739 -0.000185 0.000321 1.000000 0.176078 0.458507
-1185.868799 2052.776558 226.758374 -0.000183 0.000321 1.000000 0.199962 0.475375
-1184.233153 2056.716592 226.757404 -0.000182 0.000322 1.000000 0.211115 0.486007
-1182.421949 2065.169663 226.754999 -0.000181 0.000324 1.000000 0.223465 0.508818
-1182.375331 2067.755470 226.754166 -0.000182 0.000326 1.000000 0.223783 0.515796
-1184.182362 2074.345615 226.751684 -0.000183 0.000327 1.000000 0.211462 0.533579
-1183.507409 2080.952753 226.749649 -0.000182 0.000327 1.000000 0.216064 0.551408
-1184.661953 2086.695851 226.747552 -0.000182 0.000329 1.000000 0.208191 0.566906
-1186.793136 2093.314200 226.744980 -0.000182 0.000331 1.000000 0.193660 0.584765
-1191.645619 2101.182743 226.741480 -0.000184 0.000333 1.000000 0.160572 0.605998
-1194.564349 2103.496863 226.740169 -0.000186 0.000334 1.000000 0.140670 0.612243
-1201.475804 2106.361985 226.737924 -0.000187 0.000333 1.000000 0.093543 0.619975
-1210.638177 2113.593912 226.733792 -0.000188 0.000334 1.000000 0.031068 0.639490
-1213.952462 2117.722130 226.731789 -0.000189 0.000334 1.000000 0.008469 0.650630
-1215.194427 2121.312471 226.730355 -0.000189 0.000334 1.000000 0.000000 0.660318
-1215.037697 2123.958816 226.729501 -0.000189 0.000334 1.000000 0.001069 0.667459
-1213.930964 2126.473010 226.728871 -0.000189 0.000334 1.000000 0.008615 0.674244
-1209.237961 2128.796547 226.728984 -0.000189 0.000334 1.000000 0.040615 0.680514
-1201.720292 2131.090131 226.729634 -0.000187 0.000333 1.000000 0.091876 0.686703
-1199.318039 2132.698439 226.729546 -0.000186 0.000333 1.000000 0.108256 0.691043
-1196.796479 2135.361934 226.729125 -0.000184 0.000334 1.000000 0.125450 0.698230
-1191.682287 2142.641686 226.727632 -0.000183 0.000334 1.000000 0.160322 0.717875
-1186.187757 2147.247435 226.727101 -0.000183 0.000335 1.000000 0.197787 0.730303
-1184.052612 2150.071576 226.726542 -0.000182 0.000338 1.000000 0.212346 0.737924
-1174.015274 2184.149194 226.716776 -0.000181 0.000342 1.000000 0.280788 0.829882
-1171.127866 2189.213233 226.715564 -0.000181 0.000343 1.000000 0.300476 0.843547
-1165.895982 2194.147428 226.714820 -0.000181 0.000343 1.000000 0.336151 0.856862
-1163.645774 2196.782632 226.714320 -0.000180 0.000344 1.000000 0.351494 0.863973
-1162.271593 2199.365711 226.713677 -0.000180 0.000345 1.000000 0.360864 0.870944
-1159.954030 2206.860508 226.711501 -0.000180 0.000347 1.000000 0.376667 0.891168
-1158.833023 2214.616783 226.709006 -0.000180 0.000348 1.000000 0.384311 0.912098
-1157.002271 2221.844673 226.706816 -0.000180 0.000349 1.000000 0.396794 0.931603
-1156.667728 2225.780823 226.705499 -0.000181 0.000351 1.000000 0.399075 0.942224
-1156.657404 2235.999648 226.701914 -0.000181 0.000352 1.000000 0.399146 0.969800
-1157.075174 2238.194225 226.701066 -0.000181 0.000352 1.000000 0.396297 0.975722
-1158.376492 2240.039245 226.700180 -0.000181 0.000352 1.000000 0.387424 0.980700
-1158.741835 2242.268300 226.699328 -0.000181 0.000353 1.000000 0.384933 0.986715
-1158.948428 2244.770370 226.698407 -0.000181 0.000353 1.000000 0.383524 0.993467
-1158.391252 2247.191288 226.697653 -0.000181 0.000353 1.000000 0.387323 1.000000
-1156.866159 2240.635209 226.700244 -0.000181 0.000353 1.000000 0.397722 0.982309
-1155.461706 2238.908925 226.701107 -0.000181 0.000352 1.000000 0.407299 0.977650
-1154.916063 2235.434979 226.702428 -0.000181 0.000352 1.000000 0.411019 0.968276
-1154.127075 2233.309710 226.703318 -0.000181 0.000351 1.000000 0.416399 0.962541
-1150.087832 2228.844710 226.705614 -0.000180 0.000350 1.000000 0.443942 0.950492
-1142.098139 2224.426164 226.708596 -0.000180 0.000349 1.000000 0.498421 0.938569
-1140.739884 2223.002926 226.709337 -0.000180 0.000349 1.000000 0.507682 0.934728
-1139.542337 2220.811724 226.710317 -0.000180 0.000349 1.000000 0.515848 0.928815
-1136.844171 2213.344625 226.713402 -0.000180 0.000348 1.000000 0.534246 0.908665
-1135.799097 2203.866531 226.716882 -0.000180 0.000346 1.000000 0.541372 0.883089
-1133.751186 2196.107717 226.719932 -0.000180 0.000345 1.000000 0.555336 0.862152
-1133.684844 2187.328299 226.722971 -0.000180 0.000344 1.000000 0.555789 0.838461
-1135.500937 2177.520151 226.726016 -0.000181 0.000343 1.000000 0.543405 0.811994
-1135.693819 2169.887993 226.728592 -0.000181 0.000341 1.000000 0.542090 0.791398
-1133.928831 2160.695616 226.732037 -0.000181 0.000339 1.000000 0.554125 0.766593
-1132.032213 2154.845547 226.734360 -0.000180 0.000339 1.000000 0.567057 0.750807
-1131.719460 2149.573636 226.736201 -0.000179 0.000339 1.000000 0.569190 0.736580
-1132.642766 2146.349828 226.737127 -0.000180 0.000339 1.000000 0.562894 0.727881
-1135.590234 2140.968224 226.738418 -0.000181 0.000338 1.000000 0.542796 0.713359
-1139.786324 2131.692857 226.740788 -0.000182 0.000336 1.000000 0.514184 0.688329
-1142.372659 2118.706567 226.744668 -0.000183 0.000333 1.000000 0.496549 0.653286
-1139.581005 2098.711716 226.751801 -0.000182 0.000329 1.000000 0.515584 0.599330
-1135.783286 2076.718961 226.759702 -0.000181 0.000326 1.000000 0.541480 0.539983
-1133.849875 2057.503704 226.766295 -0.000181 0.000323 1.000000 0.554663 0.488131
-1131.777300 2048.593886 226.769541 -0.000181 0.000321 1.000000 0.568795 0.464088
-1126.480834 2038.719922 226.773652 -0.000181 0.000318 1.000000 0.604910 0.437444
-1122.600801 2032.822788 226.776224 -0.000180 0.000316 1.000000 0.631367 0.421530
-1116.003782 2024.272656 226.780110 -0.000179 0.000315 1.000000 0.676350 0.398458
-1111.834341 2019.738314 226.782280 -0.000178 0.000315 1.000000 0.704780 0.386222
-1107.846491 2012.393634 226.785303 -0.000178 0.000314 1.000000 0.731972 0.366403
-1102.296651 2006.800141 226.788032 -0.000176 0.000311 1.000000 0.769815 0.351309
-1098.636897 2004.326076 226.789443 -0.000175 0.000310 1.000000 0.794770 0.344632
-1096.520542 2003.575049 226.790044 -0.000173 0.000311 1.000000 0.809200 0.342606
-1092.936647 2003.035473 226.790828 -0.000171 0.000312 1.000000 0.833638 0.341150
-1087.920694 2003.217401 226.791628 -0.000170 0.000313 1.000000 0.867840 0.341641
-1075.910092 2004.876857 226.793140 -0.000169 0.000314 1.000000 0.949737 0.346119
-1073.433136 2004.877038 226.793556 -0.000168 0.000315 1.000000 0.966626 0.346119
-1071.547544 2004.042073 226.794136 -0.000168 0.000315 1.000000 0.979483 0.343866
-1070.988767 2003.130648 226.794517 -0.000168 0.000315 1.000000 0.983294 0.341407
-1068.956380 1997.973497 226.796481 -0.000169 0.000314 1.000000 0.997152 0.327490
-1068.538670 1995.657913 226.797279 -0.000169 0.000314 1.000000 1.000000 0.321242
-1069.316488 1987.850273 226.799595 -0.000170 0.000313 1.000000 0.994696 0.300173
-1072.288810 1979.410824 226.801731 -0.000171 0.000312 1.000000 0.974429 0.277399
-1073.717756 1971.565571 226.803929 -0.000172 0.000311 1.000000 0.964685 0.256229
-1075.586891 1964.391907 226.805836 -0.000174 0.000310 1.000000 0.951940 0.236871
-1075.630976 1960.527662 226.807022 -0.000174 0.000308 1.000000 0.951640 0.226443
-1074.311921 1947.580543 226.811224 -0.000170 0.000307 1.000000 0.960634 0.191506
-1074.516033 1945.709936 226.811763 -0.000169 0.000306 1.000000 0.959242 0.186458
-1075.692325 1943.133506 226.812353 -0.000170 0.000307 1.000000 0.951221 0.179505
-1079.067925 1938.953533 226.813060 -0.000173 0.000306 1.000000 0.928204 0.168226
3 1 0 10
3 1 3 2
3 3 1 10
3 3 7 4
3 4 7 5
3 5 7 6
3 3 8 7
3 3 9 8
3 3 10 9
3 0 11 10
3 0 12 11
3 12 0 119
3 13 12 119
3 16 15 100
3 19 18 97
3 22 21 24
3 22 24 23
3 21 20 25
3 21 25 24
3 20 19 26
3 20 26 25
3 18 17 99
3 19 97 26
3 27 26 96
3 28 27 94
3 29 28 32
3 29 31 30
3 29 32 31
3 28 94 32
3 33 32 94
3 35 34 92
3 36 35 37
3 37 35 92
3 38 37 91
3 41 40 51
3 42 41 49
3 43 42 49
3 44 43 48
3 44 48 45
3 45 48 46
3 46 48 47
3 43 49 48
3 40 39 90
3 41 50 49
3 39 38 91
3 50 41 51
3 51 40 90
3 52 51 90
3 53 52 90
3 54 53 89
3 54 83 55
3 55 82 56
3 56 82 57
3 58 57 82
3 59 58 81
3 60 59 79
3 61 60 78
3 62 61 77
3 63 62 74
3 65 64 71
3 66 65 70
3 67 66 70
3 68 67 70
3 68 70 69
3 64 63 73
3 70 65 71
3 64 72 71
3 64 73 72
3 73 63 74
3 74 62 75
3 75 62 77
3 75 77 76
3 61 78 77
3 60 79 78
3 59 80 79
3 59 81 80
3 58 82 81
3 94 27 95
3 84 83 54
3 82 55 83
3 88 84 54
3 85 84 88
3 85 87 86
3 14 13 119
3 85 88 87
3 14 115 15
3 54 89 88
3 100 17 16
3 53 90 89
3 34 33 93
3 90 39 91
3 91 37 92
3 92 34 93
3 93 33 94
3 95 27 96
3 96 26 97
3 97 18 99
3 98 97 99
3 99 17 100
3 100 15 101
3 101 15 114
3 102 101 114
3 103 102 113
3 104 103 112
3 105 104 110
3 106 105 108
3 107 106 108
3 108 105 109
3 105 110 109
3 104 111 110
3 104 112 111
3 103 113 112
3 102 114 113
3 114 15 115
3 115 14 119
3 115 119 116
3 116 118 117
3 116 119 118
